<svg xmlns="http://www.w3.org/2000/svg" xmlns:xlink="http://www.w3.org/1999/xlink" width="100" height="25" viewBox="0 0 100 25">
  <defs>
    <clipPath id="clip-path">
      <rect id="Rectangle_33" data-name="Rectangle 33" width="100" height="25" transform="translate(-0.4 0.1)" fill="#fff"/>
    </clipPath>
  </defs>
  <g id="app-store" transform="translate(0.4 -0.1)">
    <g id="Group_63" data-name="Group 63" transform="translate(0 0)" clip-path="url(#clip-path)">
      <path id="Path_102" data-name="Path 102" d="M14.883,11.9a4.976,4.976,0,0,1,2.371-4.176,5.1,5.1,0,0,0-4.015-2.171C11.55,5.377,9.912,6.565,9.051,6.565c-.877,0-2.2-.993-3.629-.964a5.346,5.346,0,0,0-4.5,2.744c-1.945,3.368-.494,8.317,1.369,11.04.932,1.333,2.022,2.822,3.448,2.769,1.4-.057,1.916-.889,3.6-.889,1.669,0,2.157.889,3.612.856,1.5-.024,2.44-1.339,3.34-2.685a11.019,11.019,0,0,0,1.527-3.111A4.811,4.811,0,0,1,14.883,11.9" transform="translate(0 0.032)" fill="#fff"/>
      <path id="Path_103" data-name="Path 103" d="M12.085,3.794A4.9,4.9,0,0,0,13.207.283,4.988,4.988,0,0,0,9.98,1.953,4.661,4.661,0,0,0,8.829,5.333a4.122,4.122,0,0,0,3.256-1.539" transform="translate(0.051 0.001)" fill="#fff"/>
      <path id="Path_104" data-name="Path 104" d="M32.376,18.756H27.615l-1.144,3.376H24.455l4.51-12.49h2.1l4.509,12.49H33.519ZM28.108,17.2h3.774l-1.861-5.479H29.97Z" transform="translate(0.143 0.056)" fill="#fff"/>
      <path id="Path_105" data-name="Path 105" d="M45.238,17.56c0,2.829-1.515,4.648-3.8,4.648a3.087,3.087,0,0,1-2.866-1.593h-.043v4.51H36.66V13.007h1.809v1.515H38.5a3.229,3.229,0,0,1,2.9-1.61c2.311,0,3.834,1.827,3.834,4.649m-1.921,0c0-1.844-.953-3.056-2.407-3.056-1.428,0-2.389,1.237-2.389,3.056,0,1.835.961,3.064,2.389,3.064,1.454,0,2.407-1.2,2.407-3.064" transform="translate(0.214 0.075)" fill="#fff"/>
      <path id="Path_106" data-name="Path 106" d="M55.2,17.56c0,2.829-1.515,4.648-3.8,4.648a3.087,3.087,0,0,1-2.866-1.593h-.043v4.51H46.625V13.007h1.809v1.515h.034a3.229,3.229,0,0,1,2.9-1.61c2.311,0,3.834,1.827,3.834,4.649m-1.921,0c0-1.844-.953-3.056-2.407-3.056-1.428,0-2.389,1.237-2.389,3.056,0,1.835.961,3.064,2.389,3.064,1.454,0,2.407-1.2,2.407-3.064" transform="translate(0.272 0.075)" fill="#fff"/>
      <path id="Path_107" data-name="Path 107" d="M61.75,18.652c.139,1.238,1.342,2.052,2.986,2.052,1.575,0,2.709-.814,2.709-1.93,0-.97-.684-1.55-2.3-1.947l-1.618-.39c-2.294-.554-3.358-1.626-3.358-3.368,0-2.154,1.878-3.635,4.544-3.635,2.639,0,4.449,1.481,4.51,3.635H67.333c-.114-1.246-1.144-2-2.649-2s-2.536.761-2.536,1.869c0,.883.658,1.4,2.267,1.8l1.377.338c2.562.607,3.627,1.635,3.627,3.463,0,2.337-1.862,3.8-4.822,3.8-2.77,0-4.64-1.429-4.761-3.688Z" transform="translate(0.349 0.055)" fill="#fff"/>
      <path id="Path_108" data-name="Path 108" d="M73.394,10.863v2.155h1.732V14.5H73.394v5.02c0,.781.347,1.144,1.108,1.144a5.734,5.734,0,0,0,.615-.043V22.09a5.112,5.112,0,0,1-1.038.087c-1.844,0-2.563-.692-2.563-2.458V14.5H70.191v-1.48h1.325V10.863Z" transform="translate(0.409 0.063)" fill="#fff"/>
      <path id="Path_109" data-name="Path 109" d="M76.094,17.56c0-2.866,1.687-4.666,4.319-4.666s4.32,1.8,4.32,4.666-1.672,4.666-4.32,4.666-4.319-1.793-4.319-4.666m6.734,0c0-1.965-.9-3.125-2.415-3.125S78,15.6,78,17.56c0,1.973.9,3.124,2.415,3.124s2.415-1.151,2.415-3.124" transform="translate(0.443 0.075)" fill="#fff"/>
      <path id="Path_110" data-name="Path 110" d="M86.215,13.006H88v1.55h.043A2.174,2.174,0,0,1,90.23,12.91a2.831,2.831,0,0,1,.641.07v1.748a2.606,2.606,0,0,0-.84-.113,1.884,1.884,0,0,0-1.948,2.1v5.4H86.215Z" transform="translate(0.502 0.075)" fill="#fff"/>
      <path id="Path_111" data-name="Path 111" d="M99.46,19.438c-.251,1.654-1.86,2.788-3.921,2.788-2.648,0-4.294-1.775-4.294-4.623s1.654-4.709,4.216-4.709c2.519,0,4.1,1.731,4.1,4.492v.641H93.132v.113a2.372,2.372,0,0,0,2.45,2.58,2.06,2.06,0,0,0,2.1-1.281ZM93.142,16.72h4.551a2.189,2.189,0,0,0-2.232-2.311,2.3,2.3,0,0,0-2.319,2.311" transform="translate(0.532 0.075)" fill="#fff"/>
      <path id="Path_112" data-name="Path 112" d="M27.868.294a2.655,2.655,0,0,1,2.823,2.982c0,1.917-1.036,3.019-2.823,3.019H25.7v-6ZM26.631,5.447h1.132a1.887,1.887,0,0,0,1.979-2.159,1.892,1.892,0,0,0-1.979-2.146H26.631Z" transform="translate(0.15 0.002)" fill="#fff"/>
      <path id="Path_113" data-name="Path 113" d="M31.709,4.021a2.146,2.146,0,1,1,4.272,0,2.146,2.146,0,1,1-4.272,0m3.352,0c0-.982-.441-1.556-1.215-1.556s-1.214.574-1.214,1.556S33.07,5.58,33.846,5.58s1.215-.573,1.215-1.559" transform="translate(0.185 0.01)" fill="#fff"/>
      <path id="Path_114" data-name="Path 114" d="M41.631,6.287H40.7l-.936-3.335H39.7l-.932,3.335h-.918L36.6,1.758H37.5l.812,3.456h.067l.93-3.456h.858L41.1,5.214h.07l.808-3.456h.893Z" transform="translate(0.213 0.01)" fill="#fff"/>
      <path id="Path_115" data-name="Path 115" d="M43.882,1.759h.86v.719h.067a1.357,1.357,0,0,1,1.352-.807,1.473,1.473,0,0,1,1.567,1.685V6.288h-.893V3.58c0-.728-.317-1.089-.978-1.089a1.039,1.039,0,0,0-1.081,1.148V6.288h-.894Z" transform="translate(0.256 0.01)" fill="#fff"/>
      <rect id="Rectangle_32" data-name="Rectangle 32" width="0.894" height="6.297" transform="translate(49.408)" fill="#fff"/>
      <path id="Path_116" data-name="Path 116" d="M51.246,4.021a2.146,2.146,0,1,1,4.273,0,2.146,2.146,0,1,1-4.273,0m3.352,0c0-.982-.441-1.556-1.215-1.556s-1.214.574-1.214,1.556.438,1.559,1.214,1.559S54.6,5.006,54.6,4.021" transform="translate(0.299 0.01)" fill="#fff"/>
      <path id="Path_117" data-name="Path 117" d="M56.429,5.006c0-.815.608-1.285,1.685-1.352l1.227-.07V3.193c0-.479-.316-.749-.927-.749-.5,0-.845.184-.943.5H56.6c.092-.779.824-1.278,1.851-1.278,1.136,0,1.776.566,1.776,1.523V6.287H59.37V5.651H59.3a1.523,1.523,0,0,1-1.361.71,1.368,1.368,0,0,1-1.51-1.355m2.912-.387V4.241l-1.106.07c-.624.041-.906.254-.906.653s.354.646.84.646a1.068,1.068,0,0,0,1.173-.991" transform="translate(0.329 0.01)" fill="#fff"/>
      <path id="Path_118" data-name="Path 118" d="M61.377,4.03c0-1.431.735-2.338,1.88-2.338a1.492,1.492,0,0,1,1.389.795h.066V0h.894V6.3h-.856V5.581h-.071a1.572,1.572,0,0,1-1.422.791c-1.152,0-1.88-.907-1.88-2.342m.923,0c0,.961.453,1.539,1.21,1.539s1.219-.586,1.219-1.535S64.259,2.5,63.51,2.5,62.3,3.078,62.3,4.03" transform="translate(0.358 0)" fill="#fff"/>
      <path id="Path_119" data-name="Path 119" d="M69.258,4.021a2.146,2.146,0,1,1,4.272,0,2.146,2.146,0,1,1-4.272,0m3.352,0c0-.982-.441-1.556-1.215-1.556s-1.214.574-1.214,1.556S70.619,5.58,71.4,5.58s1.215-.573,1.215-1.559" transform="translate(0.404 0.01)" fill="#fff"/>
      <path id="Path_120" data-name="Path 120" d="M74.7,1.759h.86v.719h.067a1.357,1.357,0,0,1,1.352-.807,1.473,1.473,0,0,1,1.567,1.685V6.288h-.893V3.58c0-.728-.317-1.089-.978-1.089a1.039,1.039,0,0,0-1.081,1.148V6.288H74.7Z" transform="translate(0.435 0.01)" fill="#fff"/>
      <path id="Path_121" data-name="Path 121" d="M83.553.637V1.786h.982v.752h-.982V4.868c0,.474.2.682.641.682a3.042,3.042,0,0,0,.341-.021v.745a2.991,2.991,0,0,1-.487.045c-.994,0-1.39-.35-1.39-1.223V2.538H81.94V1.786h.718V.637Z" transform="translate(0.477 0.004)" fill="#fff"/>
      <path id="Path_122" data-name="Path 122" d="M85.733,0h.886V2.5h.07a1.4,1.4,0,0,1,1.381-.811,1.492,1.492,0,0,1,1.56,1.689V6.3h-.9v-2.7c0-.723-.337-1.09-.969-1.09a1.058,1.058,0,0,0-1.14,1.149V6.3h-.894Z" transform="translate(0.5 0)" fill="#fff"/>
      <path id="Path_123" data-name="Path 123" d="M94.813,5.065a1.838,1.838,0,0,1-1.962,1.311,2.057,2.057,0,0,1-2.092-2.338,2.089,2.089,0,0,1,2.088-2.367c1.26,0,2.021.861,2.021,2.283v.312h-3.2v.05a1.2,1.2,0,0,0,1.206,1.3,1.087,1.087,0,0,0,1.078-.549ZM91.669,3.605h2.287a1.093,1.093,0,0,0-1.114-1.174,1.159,1.159,0,0,0-1.173,1.174" transform="translate(0.529 0.01)" fill="#fff"/>
    </g>
  </g>
</svg>
