<svg id="google-play" xmlns="http://www.w3.org/2000/svg" xmlns:xlink="http://www.w3.org/1999/xlink" width="107.62" height="25.371" viewBox="0 0 107.62 25.371">
  <defs>
    <clipPath id="clip-path">
      <rect id="Rectangle_30" data-name="Rectangle 30" width="107.62" height="25.371" fill="none"/>
    </clipPath>
    <clipPath id="clip-path-2">
      <rect id="Rectangle_20" data-name="Rectangle 20" width="107.62" height="25.371" fill="#fff"/>
    </clipPath>
    <clipPath id="clip-path-3">
      <path id="Path_94" data-name="Path 94" d="M.43.768A1.859,1.859,0,0,0,0,2.073V22.619a1.86,1.86,0,0,0,.43,1.305l.068.067,11.51-11.509V12.21L.5.7Z" transform="translate(0 -0.701)" fill="none"/>
    </clipPath>
    <linearGradient id="linear-gradient" x1="0.259" y1="1.017" x2="0.668" y2="1.018" gradientUnits="objectBoundingBox">
      <stop offset="0" stop-color="#00a0ff"/>
      <stop offset="0.007" stop-color="#00a1ff"/>
      <stop offset="0.26" stop-color="#00beff"/>
      <stop offset="0.512" stop-color="#00d2ff"/>
      <stop offset="0.76" stop-color="#00dfff"/>
      <stop offset="1" stop-color="#00e3ff"/>
    </linearGradient>
    <clipPath id="clip-path-4">
      <path id="Path_95" data-name="Path 95" d="M12.926,12.8v.271l3.836,3.839.088-.049,4.545-2.584c1.3-.738,1.3-1.945,0-2.683L16.85,9.008l-.087-.049Z" transform="translate(-12.926 -8.959)" fill="none"/>
    </clipPath>
    <linearGradient id="linear-gradient-2" x1="-1.229" y1="2.145" x2="-1.134" y2="2.145" gradientUnits="objectBoundingBox">
      <stop offset="0" stop-color="#ffe000"/>
      <stop offset="0.409" stop-color="#ffbd00"/>
      <stop offset="0.775" stop-color="orange"/>
      <stop offset="1" stop-color="#ff9c00"/>
    </linearGradient>
    <clipPath id="clip-path-5">
      <path id="Path_96" data-name="Path 96" d="M.463,24.814a1.51,1.51,0,0,0,1.93.057L15.965,17.16l-3.924-3.924Z" transform="translate(-0.463 -13.236)" fill="none"/>
    </clipPath>
    <linearGradient id="linear-gradient-3" x1="0.88" y1="0.88" x2="0.128" y2="0.862" gradientUnits="objectBoundingBox">
      <stop offset="0" stop-color="#ff3a44"/>
      <stop offset="1" stop-color="#c31162"/>
    </linearGradient>
    <clipPath id="clip-path-6">
      <path id="Path_97" data-name="Path 97" d="M.463.745,12.041,12.323,15.965,8.4,2.393.687A2.142,2.142,0,0,0,1.352.375a1.188,1.188,0,0,0-.889.37" transform="translate(-0.463 -0.375)" fill="none"/>
    </clipPath>
    <linearGradient id="linear-gradient-4" x1="0.079" y1="1.486" x2="0.126" y2="1.486" gradientUnits="objectBoundingBox">
      <stop offset="0" stop-color="#32a071"/>
      <stop offset="0.068" stop-color="#2da771"/>
      <stop offset="0.476" stop-color="#15cf74"/>
      <stop offset="0.801" stop-color="#06e775"/>
      <stop offset="1" stop-color="#00f076"/>
    </linearGradient>
    <clipPath id="clip-path-8">
      <rect id="Rectangle_25" data-name="Rectangle 25" width="15.502" height="8.11" fill="none"/>
    </clipPath>
    <clipPath id="clip-path-9">
      <rect id="Rectangle_26" data-name="Rectangle 26" width="0.499" height="1.441" fill="none"/>
    </clipPath>
    <clipPath id="clip-path-10">
      <rect id="Rectangle_27" data-name="Rectangle 27" width="5.606" height="3.924" fill="none"/>
    </clipPath>
    <clipPath id="clip-path-11">
      <rect id="Rectangle_28" data-name="Rectangle 28" width="21.451" height="11.947" fill="none"/>
    </clipPath>
  </defs>
  <g id="Mask_Group_60" data-name="Mask Group 60" clip-path="url(#clip-path)">
    <g id="Group_37" data-name="Group 37" transform="translate(0 0)">
      <g id="Group_36" data-name="Group 36" clip-path="url(#clip-path-2)">
        <path id="Path_87" data-name="Path 87" d="M37.046,2.717H34.175v.856h2.014a1.618,1.618,0,0,1-.43.97,2.126,2.126,0,0,1-2.949,0,2.052,2.052,0,0,1-.614-1.54A2.062,2.062,0,0,1,34.268.871a1.779,1.779,0,0,1,1.455.628l.066.078.621-.622L36.355.89a2.4,2.4,0,0,0-.907-.648A2.983,2.983,0,0,0,34.268,0a2.906,2.906,0,0,0-2.116.864,2.905,2.905,0,0,0-.872,2.141,2.9,2.9,0,0,0,.872,2.14,2.908,2.908,0,0,0,2.116.863,2.8,2.8,0,0,0,2.113-.852,2.613,2.613,0,0,0,.72-1.926,2.45,2.45,0,0,0-.041-.437Z" transform="translate(-2.221 0)" fill="#fff"/>
        <path id="Path_88" data-name="Path 88" d="M38.452,5.894h3.44v-.87H39.354V3.442h2.289V2.586H39.354V1h2.538V.135h-3.44Z" transform="translate(-2.73 -0.01)" fill="#fff"/>
        <path id="Path_89" data-name="Path 89" d="M42.759,1.005h1.557V5.895h.9V1.005h1.557V.135H42.759Z" transform="translate(-3.036 -0.01)" fill="#fff"/>
        <rect id="Rectangle_19" data-name="Rectangle 19" width="0.902" height="5.76" transform="translate(46.325 0.124)" fill="#fff"/>
        <path id="Path_90" data-name="Path 90" d="M51.608,1.005h1.557V5.895h.9V1.005h1.557V.135H51.608Z" transform="translate(-3.664 -0.01)" fill="#fff"/>
        <path id="Path_91" data-name="Path 91" d="M61.211,0A2.837,2.837,0,0,0,59.1.873a2.954,2.954,0,0,0-.847,2.132A2.954,2.954,0,0,0,59.1,5.136a2.987,2.987,0,0,0,4.22,0,2.954,2.954,0,0,0,.848-2.131A2.953,2.953,0,0,0,63.318.877,2.837,2.837,0,0,0,61.211,0m0,5.138a1.967,1.967,0,0,1-1.448-.6,2.1,2.1,0,0,1-.592-1.534,2.1,2.1,0,0,1,.592-1.535,2.05,2.05,0,0,1,2.9,0,2.1,2.1,0,0,1,.593,1.535,2.1,2.1,0,0,1-.593,1.534,1.964,1.964,0,0,1-1.448.6" transform="translate(-4.136 0)" fill="#fff"/>
        <path id="Path_92" data-name="Path 92" d="M69.084.134V3.492l.021.784L66.519.134H65.5v5.76h.9V2.327l-.021-.783L69.066,5.85l.028.044h.892V.134Z" transform="translate(-4.651 -0.01)" fill="#fff"/>
        <path id="Path_93" data-name="Path 93" d="M56.239,14.653A3.951,3.951,0,1,0,60.206,18.6a3.894,3.894,0,0,0-3.967-3.951m0,6.345A2.285,2.285,0,0,1,54.01,18.6a2.236,2.236,0,1,1,4.46,0A2.286,2.286,0,0,1,56.239,21m-8.652-6.345A3.951,3.951,0,1,0,51.553,18.6a3.894,3.894,0,0,0-3.966-3.951m0,6.345A2.286,2.286,0,0,1,45.357,18.6a2.236,2.236,0,1,1,4.46,0A2.285,2.285,0,0,1,47.588,21M37.3,15.864v1.677h4.011a3.493,3.493,0,0,1-.913,2.11,4.1,4.1,0,0,1-3.1,1.227,4.46,4.46,0,0,1,0-8.919,4.273,4.273,0,0,1,3.023,1.2L41.5,11.974A5.847,5.847,0,0,0,37.3,10.282a6.223,6.223,0,0,0-6.226,6.136A6.223,6.223,0,0,0,37.3,22.555a5.611,5.611,0,0,0,4.281-1.721,5.538,5.538,0,0,0,1.451-3.921,5.512,5.512,0,0,0-.089-1.048Zm42.091,1.3A3.671,3.671,0,0,0,76,14.653,3.754,3.754,0,0,0,72.278,18.6,3.866,3.866,0,0,0,76.2,22.555,3.929,3.929,0,0,0,79.491,20.8l-1.347-.9A2.256,2.256,0,0,1,76.2,21a2.009,2.009,0,0,1-1.916-1.2l5.283-2.185ZM74,18.484a2.166,2.166,0,0,1,2.065-2.3,1.53,1.53,0,0,1,1.467.838Zm-4.3,3.831H71.44V10.7H69.7Zm-2.844-6.78H66.8a2.741,2.741,0,0,0-2.081-.883,3.955,3.955,0,0,0,0,7.9,2.694,2.694,0,0,0,2.081-.9h.059v.569c0,1.512-.808,2.32-2.111,2.32a2.186,2.186,0,0,1-1.99-1.407l-1.512.629a3.766,3.766,0,0,0,3.5,2.335c2.035,0,3.757-1.2,3.757-4.115V14.892H66.86ZM64.869,21a2.267,2.267,0,0,1-2.2-2.379,2.285,2.285,0,0,1,2.2-2.41,2.227,2.227,0,0,1,2.111,2.41A2.208,2.208,0,0,1,64.869,21m22.65-10.3H83.365V22.315H85.1v-4.4h2.42a3.612,3.612,0,1,0,0-7.214m.046,5.6H85.1V12.318h2.466a1.991,1.991,0,1,1,0,3.981m10.712-1.668a3.256,3.256,0,0,0-3.093,1.778l1.538.643a1.643,1.643,0,0,1,1.584-.852,1.67,1.67,0,0,1,1.824,1.494v.12a3.839,3.839,0,0,0-1.809-.448c-1.658,0-3.346.911-3.346,2.614a2.683,2.683,0,0,0,2.884,2.556A2.444,2.444,0,0,0,100.07,21.4h.06v.9H101.8V17.843c0-2.061-1.539-3.212-3.526-3.212M98.068,21c-.568,0-1.36-.284-1.36-.987,0-.9.987-1.24,1.838-1.24a3.092,3.092,0,0,1,1.584.389A2.1,2.1,0,0,1,98.068,21m9.832-6.111-1.987,5.035h-.06l-2.061-5.035h-1.868l3.094,7.037-1.763,3.915h1.808l4.767-10.952Zm-15.614,7.43h1.734V10.7H92.285Z" transform="translate(-2.206 -0.73)" fill="#fff"/>
      </g>
    </g>
    <g id="Group_39" data-name="Group 39" transform="translate(0 0.651)">
      <g id="Group_38" data-name="Group 38" clip-path="url(#clip-path-3)">
        <rect id="Rectangle_21" data-name="Rectangle 21" width="24.96" height="24.96" transform="translate(23.052 14.803) rotate(150)" fill="url(#linear-gradient)"/>
      </g>
    </g>
    <g id="Group_41" data-name="Group 41" transform="translate(12.008 8.323)">
      <g id="Group_40" data-name="Group 40" clip-path="url(#clip-path-4)">
        <rect id="Rectangle_22" data-name="Rectangle 22" width="9.768" height="7.948" transform="translate(0 0)" fill="url(#linear-gradient-2)"/>
      </g>
    </g>
    <g id="Group_43" data-name="Group 43" transform="translate(0.43 12.296)">
      <g id="Group_42" data-name="Group 42" clip-path="url(#clip-path-5)">
        <rect id="Rectangle_23" data-name="Rectangle 23" width="19.509" height="19.509" transform="translate(-6.044 6.043) rotate(-45)" fill="url(#linear-gradient-3)"/>
      </g>
    </g>
    <g id="Group_45" data-name="Group 45" transform="translate(0.43 0.348)">
      <g id="Group_44" data-name="Group 44" clip-path="url(#clip-path-6)">
        <rect id="Rectangle_24" data-name="Rectangle 24" width="19.41" height="19.41" transform="translate(-5.974 5.973) rotate(-45)" fill="url(#linear-gradient-4)"/>
      </g>
    </g>
    <g id="Group_59" data-name="Group 59" transform="translate(0 0)">
      <g id="Group_58" data-name="Group 58" clip-path="url(#clip-path)">
        <g id="Group_48" data-name="Group 48" transform="translate(0.43 16.133)" opacity="0.2" style="isolation: isolate">
          <g id="Group_47" data-name="Group 47">
            <g id="Group_46" data-name="Group 46" clip-path="url(#clip-path-8)">
              <path id="Path_98" data-name="Path 98" d="M15.878,17.366,2.393,25.027a1.547,1.547,0,0,1-1.862.01l-.069.07.069.067h0a1.547,1.547,0,0,0,1.862-.01l13.571-7.711Z" transform="translate(-0.463 -17.366)"/>
            </g>
          </g>
        </g>
        <g id="Group_51" data-name="Group 51" transform="translate(0 22.433)" opacity="0.12" style="isolation: isolate">
          <g id="Group_50" data-name="Group 50">
            <g id="Group_49" data-name="Group 49" clip-path="url(#clip-path-9)">
              <path id="Path_99" data-name="Path 99" d="M.43,25.453A1.86,1.86,0,0,1,0,24.148v.136a1.86,1.86,0,0,0,.43,1.305L.5,25.52Z" transform="translate(0 -24.148)"/>
            </g>
          </g>
        </g>
        <g id="Group_54" data-name="Group 54" transform="translate(15.845 12.296)" opacity="0.12" style="isolation: isolate">
          <g id="Group_53" data-name="Group 53">
            <g id="Group_52" data-name="Group 52" clip-path="url(#clip-path-10)">
              <path id="Path_100" data-name="Path 100" d="M21.688,14.441l-4.632,2.632.086.086,4.546-2.583a1.629,1.629,0,0,0,.974-1.341,1.729,1.729,0,0,1-.974,1.2" transform="translate(-17.056 -13.236)"/>
            </g>
          </g>
        </g>
        <g id="Group_57" data-name="Group 57" transform="translate(0 0.348)" opacity="0.25" style="isolation: isolate">
          <g id="Group_56" data-name="Group 56">
            <g id="Group_55" data-name="Group 55" clip-path="url(#clip-path-11)">
              <path id="Path_101" data-name="Path 101" d="M2.361.824,20.477,11.117a1.73,1.73,0,0,1,.975,1.206,1.631,1.631,0,0,0-.975-1.341L2.361.688C1.062-.05,0,.563,0,2.05v.136C0,.7,1.062.086,2.361.824" transform="translate(0 -0.375)" fill="#fff"/>
            </g>
          </g>
        </g>
      </g>
    </g>
  </g>
</svg>
